<svg width="93" height="40" viewBox="0 0 93 40" fill="none" xmlns="http://www.w3.org/2000/svg">
<path d="M91.3102 39.3968H92.9867V39.9317H90.6848V36.4353H92.8949V36.9702H91.3102V37.8762H92.6707V38.4111H91.3102V39.3968ZM88.1386 39.3968C88.5039 39.3968 88.7886 39.3444 88.9926 39.242C89.1764 39.1509 89.3131 39.0144 89.405 38.8391C89.4969 38.6638 89.544 38.4384 89.544 38.163C89.544 38.0196 89.5283 37.8921 89.4969 37.776C89.4655 37.6622 89.4229 37.5575 89.3646 37.4687C89.3064 37.3799 89.2369 37.3025 89.154 37.2365C89.071 37.1728 88.9791 37.1204 88.8738 37.0772C88.7774 37.0385 88.6698 37.0112 88.551 36.993C88.4322 36.977 88.2977 36.9656 88.152 36.9656H87.8764V39.3922H88.1341L88.1386 39.3968ZM87.2555 39.9317V36.4353H88.1588C88.2395 36.4353 88.3202 36.4375 88.4031 36.4421C88.486 36.4489 88.5645 36.4535 88.6429 36.4648C88.7214 36.4762 88.7953 36.4876 88.8693 36.5035C88.9433 36.5172 89.0105 36.5354 89.071 36.5559C89.2526 36.6151 89.4117 36.6948 89.5529 36.7972C89.6919 36.8974 89.8084 37.018 89.9026 37.1546C89.9967 37.2934 90.0684 37.446 90.1178 37.6144C90.1648 37.7851 90.1895 37.9695 90.1895 38.1676C90.1895 38.3565 90.1693 38.5318 90.1267 38.6957C90.0864 38.8618 90.0236 39.0121 89.9407 39.1464C89.8578 39.283 89.7524 39.4036 89.6246 39.5061C89.4969 39.6085 89.349 39.6927 89.1741 39.761C89.0307 39.8156 88.8648 39.8589 88.6833 39.8862C88.4995 39.9135 88.2933 39.9272 88.0646 39.9272H87.2532L87.2555 39.9317ZM85.2965 37.2752C85.1755 37.6394 85.0679 37.9445 84.9737 38.1903L84.8594 38.509H85.7493L85.6327 38.1926C85.5386 37.9445 85.431 37.6394 85.31 37.2775H85.2987L85.2965 37.2752ZM85.9465 39.044H84.6555L84.326 39.934H83.6603L85.0141 36.4375H85.5856L86.9394 39.934H86.2782L85.9488 39.044H85.9465ZM81.448 39.3968C81.8134 39.3968 82.098 39.3444 82.302 39.242C82.4835 39.1509 82.6225 39.0144 82.7144 38.8391C82.8063 38.6638 82.8556 38.4384 82.8556 38.163C82.8556 38.0196 82.8399 37.8921 82.8085 37.776C82.7794 37.6622 82.7323 37.5575 82.6763 37.4687C82.618 37.3799 82.5485 37.3025 82.4656 37.2365C82.3827 37.1728 82.2885 37.1204 82.1854 37.0772C82.0891 37.0385 81.9815 37.0112 81.8627 36.993C81.7439 36.977 81.6094 36.9656 81.4615 36.9656H81.188V39.3922H81.4458L81.448 39.3968ZM80.5649 39.9317V36.4353H81.4682C81.5466 36.4353 81.6296 36.4375 81.7125 36.4421C81.7954 36.4489 81.8739 36.4535 81.9523 36.4648C82.0308 36.4762 82.1048 36.4876 82.1787 36.5035C82.2527 36.5172 82.3199 36.5354 82.3804 36.5559C82.562 36.6151 82.7211 36.6948 82.8623 36.7972C83.0035 36.8974 83.1179 37.018 83.212 37.1546C83.3061 37.2934 83.3779 37.446 83.4272 37.6144C83.4742 37.7851 83.4989 37.9695 83.4989 38.1676C83.4989 38.3565 83.4787 38.5318 83.4384 38.6957C83.398 38.8618 83.3353 39.0121 83.2523 39.1464C83.1694 39.283 83.0641 39.4036 82.9363 39.5061C82.8085 39.6085 82.6606 39.6927 82.4858 39.761C82.3423 39.8156 82.1765 39.8589 81.9949 39.8862C81.8111 39.9135 81.6049 39.9272 81.3763 39.9272H80.5649V39.9317ZM79.2918 39.9317V36.4353H79.9171V39.9317H79.2918ZM77.279 36.4353V39.3968H78.8749V39.9317H76.6537V36.4353H77.279ZM75.3805 39.9317V36.4353H76.0059V39.9317H75.3805ZM73.4843 37.8762C73.6524 37.8762 73.7779 37.858 73.8631 37.8238C73.955 37.7829 74.0223 37.7282 74.0626 37.6577C74.103 37.5871 74.1231 37.5074 74.1231 37.4186C74.1231 37.3299 74.1007 37.2434 74.0536 37.1705C74.0066 37.0977 73.9304 37.0453 73.8183 37.0089C73.7735 36.9952 73.7197 36.9861 73.6591 36.9793C73.5986 36.9725 73.5224 36.9702 73.4328 36.9702H72.9217V37.8762H73.4843ZM72.9217 38.4111V39.3968H73.3297C73.4395 39.3968 73.5336 39.3945 73.6098 39.3877C73.686 39.3809 73.7533 39.3718 73.8116 39.3581C73.899 39.3399 73.9707 39.3148 74.029 39.2807C74.0873 39.2488 74.1343 39.2124 74.1702 39.1714C74.206 39.1305 74.2307 39.0849 74.2464 39.0349C74.2621 38.9848 74.2688 38.9324 74.2688 38.8755C74.2688 38.7776 74.2442 38.6934 74.1904 38.6183C74.1388 38.5454 74.0559 38.4908 73.9438 38.4544C73.8945 38.4384 73.8362 38.4271 73.769 38.4202C73.7017 38.4134 73.6166 38.4089 73.5135 38.4089H72.9217V38.4111ZM74.7642 37.3663C74.7642 37.5188 74.7305 37.6554 74.6655 37.7829C74.5983 37.9081 74.4885 38.0128 74.3361 38.0993V38.1107C74.4212 38.1402 74.4974 38.1767 74.5692 38.2245C74.6386 38.2723 74.7014 38.3269 74.7507 38.3884C74.8023 38.4544 74.8426 38.5249 74.8717 38.6046C74.9009 38.6843 74.9143 38.7753 74.9143 38.8732C74.9143 38.9597 74.9009 39.0508 74.874 39.1487C74.8471 39.2466 74.8023 39.3399 74.735 39.4309C74.6678 39.522 74.5804 39.6062 74.4683 39.6836C74.3585 39.761 74.2195 39.8225 74.0491 39.868C74.0066 39.8794 73.9595 39.8885 73.9102 39.8976C73.8609 39.9067 73.8048 39.9135 73.7421 39.9204C73.6816 39.9272 73.6143 39.9317 73.5381 39.934C73.4619 39.9363 73.379 39.9386 73.2848 39.9386H72.2919V36.4421H73.4776C73.7309 36.4421 73.9326 36.4671 74.0895 36.5218C74.2061 36.5605 74.3047 36.6105 74.3898 36.672C74.475 36.7357 74.5445 36.804 74.6005 36.8791C74.6566 36.9543 74.6947 37.0362 74.7238 37.1182C74.7507 37.2024 74.7619 37.2889 74.7619 37.3731L74.7642 37.3663ZM70.3374 37.2752C70.2141 37.6394 70.1065 37.9445 70.0146 38.1903L69.8981 38.509H70.7879L70.6736 38.1926C70.5795 37.9445 70.4719 37.6394 70.3486 37.2775H70.3396L70.3374 37.2752ZM70.9874 39.044H69.6964L69.3669 39.934H68.7012L70.055 36.4375H70.6243L71.9781 39.934H71.3169L70.9874 39.044ZM67.9032 39.9317H67.2779V36.9702H66.1774V36.4353H69.0015V36.9702H67.9032V39.9317ZM64.651 38.0606C64.8953 38.418 65.0948 38.7366 65.2472 39.0121H65.2629C65.2427 38.5568 65.2337 38.2267 65.2337 38.0196V36.4353H65.8591V39.9317H65.2046L64.0929 38.3224C63.8979 38.0446 63.6939 37.7214 63.4854 37.3526H63.4697C63.4899 37.7806 63.5011 38.1129 63.5011 38.3474V39.9317H62.8758V36.4353H63.5303L64.6532 38.0606H64.651ZM62.3804 38.1812C62.3804 38.4476 62.3446 38.6934 62.2706 38.9142C62.1966 39.1373 62.0868 39.3285 61.9456 39.4878C61.8044 39.6472 61.6296 39.7724 61.4233 39.8612C61.2171 39.9499 60.9818 39.9932 60.7195 39.9932C60.4573 39.9932 60.222 39.9499 60.0135 39.8612C59.8073 39.7724 59.6325 39.6472 59.4913 39.4878C59.35 39.3285 59.2402 39.135 59.1685 38.9142C59.0945 38.6934 59.0564 38.4476 59.0564 38.1812C59.0564 37.9149 59.0945 37.669 59.1685 37.446C59.2425 37.2229 59.35 37.0317 59.4913 36.8723C59.6325 36.713 59.8073 36.5878 60.0135 36.4967C60.2197 36.4079 60.4551 36.3647 60.7195 36.3647C60.984 36.3647 61.2171 36.4079 61.4233 36.4967C61.6296 36.5855 61.8044 36.7107 61.9456 36.8723C62.0868 37.0317 62.1966 37.2251 62.2706 37.446C62.3446 37.6668 62.3804 37.9126 62.3804 38.1812ZM61.7327 38.1812C61.7327 37.9672 61.708 37.7829 61.6565 37.6212C61.6071 37.4619 61.5354 37.3276 61.4458 37.2229C61.3561 37.1159 61.2485 37.0362 61.1252 36.9839C61.002 36.9315 60.8675 36.9042 60.7195 36.9042C60.5716 36.9042 60.4349 36.9292 60.3116 36.9839C60.1883 37.0362 60.0807 37.1159 59.9911 37.2229C59.9014 37.3276 59.8297 37.4619 59.7804 37.6212C59.7288 37.7806 59.7042 37.9672 59.7042 38.1812C59.7042 38.3952 59.7288 38.5796 59.7804 38.7389C59.8297 38.8983 59.9014 39.0303 59.9911 39.1373C60.0807 39.242 60.1883 39.3217 60.3116 39.3763C60.4349 39.4287 60.5694 39.456 60.7195 39.456C60.8697 39.456 61.002 39.4287 61.1252 39.3763C61.2485 39.3217 61.3561 39.242 61.4458 39.1373C61.5354 39.0303 61.6071 38.9005 61.6565 38.7389C61.708 38.5796 61.7327 38.3929 61.7327 38.1812ZM57.9873 36.9065C57.8169 36.9065 57.66 36.936 57.5166 36.993C57.3731 37.0499 57.2499 37.1341 57.149 37.2434C57.0459 37.3526 56.9652 37.4892 56.9069 37.6508C56.8486 37.8124 56.8195 37.9968 56.8195 38.204C56.8195 38.4111 56.8464 38.591 56.898 38.748C56.9495 38.9051 57.0257 39.0349 57.1243 39.1396C57.223 39.2443 57.344 39.3239 57.4852 39.3763C57.6264 39.4287 57.7878 39.456 57.9671 39.456C58.0971 39.456 58.2271 39.4469 58.3616 39.4264C58.4961 39.4059 58.6216 39.3786 58.7381 39.3399V39.8885C58.6193 39.9226 58.4916 39.9499 58.3549 39.9704C58.2181 39.9909 58.0747 40 57.9268 40C57.6376 40 57.3843 39.9591 57.1647 39.8748C56.9473 39.7906 56.7635 39.67 56.6155 39.5152C56.4676 39.3604 56.3555 39.176 56.2838 38.962C56.2098 38.748 56.1717 38.509 56.1717 38.2495C56.1717 37.99 56.2121 37.7351 56.2905 37.5074C56.369 37.2775 56.4833 37.0817 56.6335 36.9133C56.7814 36.7448 56.9697 36.6151 57.1916 36.5195C57.4157 36.4239 57.669 36.3738 57.9514 36.3738C58.0949 36.3738 58.2316 36.3829 58.3616 36.4011C58.4916 36.4216 58.6059 36.4489 58.7112 36.4876V37.0271C58.5745 36.9861 58.449 36.9565 58.3325 36.9406C58.2159 36.9247 58.0993 36.9156 57.9895 36.9156L57.9873 36.9065ZM53.2826 39.3968H54.9591V39.9317H52.6572V36.4353H54.8672V36.9702H53.2826V37.8762H54.6431V38.4111H53.2826V39.3968ZM50.1132 39.3968C50.4763 39.3968 50.7632 39.3444 50.9672 39.242C51.1488 39.1509 51.2855 39.0144 51.3796 38.8391C51.4738 38.6638 51.5208 38.4384 51.5208 38.163C51.5208 38.0196 51.5051 37.8921 51.4738 37.776C51.4446 37.6622 51.3998 37.5575 51.3415 37.4687C51.2855 37.3799 51.2138 37.3025 51.1331 37.2365C51.0501 37.1728 50.956 37.1204 50.8529 37.0772C50.7565 37.0385 50.6489 37.0112 50.5301 36.993C50.4113 36.977 50.2791 36.9656 50.1289 36.9656H49.8532V39.3922H50.111L50.1132 39.3968ZM49.2279 39.9317V36.4353H50.1312C50.2096 36.4353 50.2925 36.4375 50.3755 36.4421C50.4584 36.4489 50.5391 36.4535 50.6153 36.4648C50.6938 36.4762 50.7677 36.4876 50.8417 36.5035C50.9157 36.5172 50.9829 36.5354 51.0434 36.5559C51.225 36.6151 51.3863 36.6948 51.5253 36.7972C51.6643 36.8974 51.7808 37.018 51.875 37.1546C51.9714 37.2934 52.0408 37.446 52.0901 37.6144C52.1372 37.7851 52.1619 37.9695 52.1619 38.1676C52.1619 38.3565 52.1417 38.5318 52.1014 38.6957C52.061 38.8618 51.9983 39.0121 51.9153 39.1464C51.8324 39.283 51.727 39.4036 51.6015 39.5061C51.4738 39.6085 51.3258 39.6927 51.151 39.761C51.0053 39.8156 50.8417 39.8589 50.6601 39.8862C50.4763 39.9135 50.2701 39.9272 50.0415 39.9272H49.2301L49.2279 39.9317ZM46.1415 36.4353V39.3968H47.7374V39.9317H45.5161V36.4353H46.1415ZM43.5571 37.2752C43.4339 37.6394 43.3263 37.9445 43.2321 38.1903L43.1156 38.509H44.0032L43.8889 38.1926C43.7947 37.9445 43.6871 37.6394 43.5661 37.2775H43.5571V37.2752ZM44.2071 39.044H42.9161L42.5844 39.934H41.9187L43.2725 36.4375H43.8418L45.1956 39.934H44.5366L44.2049 39.044H44.2071ZM40.0762 38.0424C40.2174 38.0424 40.3385 38.0355 40.4394 38.0219C40.538 38.0082 40.6209 37.9877 40.6881 37.9627C40.8137 37.9149 40.9011 37.8489 40.9504 37.7624C40.9975 37.6781 41.0221 37.5803 41.0221 37.471C41.0221 37.3777 41.0042 37.2934 40.9661 37.2206C40.928 37.1478 40.863 37.0908 40.7711 37.0499C40.7128 37.0203 40.6388 37.0021 40.5492 36.9884C40.4595 36.9747 40.3475 36.9679 40.2152 36.9679H39.7714V38.0401H40.0785L40.0762 38.0424ZM41.6632 37.4847C41.6632 37.7282 41.5959 37.9354 41.4659 38.1061C41.3337 38.2768 41.1319 38.402 40.8563 38.484V38.4954L41.8783 39.934H41.1275L40.1995 38.5796H39.7714V39.934H39.1438V36.4375H40.1793C40.3519 36.4375 40.5111 36.4466 40.659 36.4671C40.8069 36.4876 40.9347 36.5172 41.0378 36.5582C41.2373 36.6356 41.3919 36.7539 41.5018 36.9065C41.6094 37.0613 41.6654 37.2547 41.6654 37.4892L41.6632 37.4847ZM36.9719 39.3968H38.6507V39.9317H36.3465V36.4353H38.5566V36.9702H36.9719V37.8762H38.3324V38.4111H36.9719V39.3968ZM33.8026 39.3968C34.1657 39.3968 34.4526 39.3444 34.6565 39.242C34.8381 39.1509 34.9748 39.0144 35.069 38.8391C35.1609 38.6638 35.2079 38.4384 35.2079 38.163C35.2079 38.0196 35.1922 37.8921 35.1609 37.776C35.1317 37.6622 35.0869 37.5575 35.0286 37.4687C34.9703 37.3799 34.9008 37.3025 34.8202 37.2365C34.7372 37.1728 34.6431 37.1204 34.54 37.0772C34.4436 37.0385 34.336 37.0112 34.2172 36.993C34.0984 36.977 33.9662 36.9656 33.8182 36.9656H33.5448V39.3922H33.8026V39.3968ZM32.9172 39.9317V36.4353H33.8182C33.8989 36.4353 33.9796 36.4375 34.0626 36.4421C34.1455 36.4489 34.2262 36.4535 34.3024 36.4648C34.3808 36.4762 34.4548 36.4876 34.5288 36.5035C34.6027 36.5172 34.67 36.5354 34.7305 36.5559C34.9121 36.6151 35.0734 36.6948 35.2124 36.7972C35.3514 36.8974 35.4679 37.018 35.5621 37.1546C35.6584 37.2934 35.7279 37.446 35.7772 37.6144C35.8243 37.7851 35.849 37.9695 35.849 38.1676C35.849 38.3565 35.8288 38.5318 35.7884 38.6957C35.7481 38.8618 35.6853 39.0121 35.6024 39.1464C35.5195 39.283 35.4141 39.4036 35.2886 39.5061C35.1608 39.6085 35.0129 39.6927 34.8381 39.761C34.6924 39.8156 34.5288 39.8589 34.3472 39.8862C34.1634 39.9135 33.9572 39.9272 33.7286 39.9272H32.9172V39.9317ZM30.7475 39.3968H32.4241V39.9317H30.1222V36.4353H32.3322V36.9702H30.7475V37.8762H32.1081V38.4111H30.7475V39.3968ZM28.1968 39.9317H27.5715V36.4353H29.7434V36.9702H28.1968V37.8762H29.5192V38.4111H28.1968V39.9317ZM26.0025 38.1812C26.0025 38.4476 25.9666 38.6934 25.8927 38.9142C25.8187 39.1373 25.7111 39.3285 25.5677 39.4878C25.4264 39.6472 25.2516 39.7724 25.0454 39.8612C24.8392 39.9499 24.6039 39.9932 24.3416 39.9932C24.0794 39.9932 23.844 39.9499 23.6378 39.8612C23.4294 39.7724 23.2568 39.6472 23.1156 39.4878C22.9721 39.3285 22.8645 39.135 22.7928 38.9142C22.7188 38.6934 22.6807 38.4476 22.6807 38.1812C22.6807 37.9149 22.7188 37.669 22.7928 37.446C22.8668 37.2229 22.9744 37.0317 23.1156 36.8723C23.2568 36.713 23.4294 36.5878 23.6378 36.4967C23.844 36.4079 24.0794 36.3647 24.3416 36.3647C24.6039 36.3647 24.8392 36.4079 25.0454 36.4967C25.2539 36.5855 25.4264 36.7107 25.5677 36.8723C25.7089 37.0317 25.8187 37.2251 25.8927 37.446C25.9666 37.6668 26.0025 37.9126 26.0025 38.1812ZM25.3547 38.1812C25.3547 37.9672 25.3301 37.7829 25.2785 37.6212C25.227 37.4619 25.1575 37.3276 25.0678 37.2229C24.9782 37.1159 24.8706 37.0362 24.7473 36.9839C24.624 36.9315 24.4873 36.9042 24.3394 36.9042C24.1914 36.9042 24.057 36.9292 23.9314 36.9839C23.8082 37.0362 23.7028 37.1159 23.6109 37.2229C23.519 37.3276 23.4495 37.4619 23.4002 37.6212C23.3487 37.7806 23.324 37.9672 23.324 38.1812C23.324 38.3952 23.3487 38.5796 23.4002 38.7389C23.4518 38.8983 23.5213 39.0303 23.6109 39.1373C23.7006 39.242 23.8082 39.3217 23.9314 39.3763C24.0547 39.4287 24.1914 39.456 24.3394 39.456C24.4873 39.456 24.6218 39.4287 24.7473 39.3763C24.8706 39.3217 24.9782 39.242 25.0678 39.1373C25.1575 39.0303 25.2292 38.9005 25.2785 38.7389C25.3301 38.5796 25.3547 38.3929 25.3547 38.1812ZM19.9776 37.8762H21.5533V36.4353H22.1787V39.9317H21.5533V38.4111H19.9776V39.9317H19.3523V36.4353H19.9776V37.8762ZM17.3395 36.4353V39.3968H18.9354V39.9317H16.7141V36.4353H17.3395ZM14.5444 39.3968H16.221V39.9317H13.9191V36.4353H16.1291V36.9702H14.5444V37.8762H15.905V38.4111H14.5444V39.3968ZM12.7491 38.9256C12.7491 38.8368 12.7267 38.7662 12.6841 38.7093C12.6415 38.6547 12.5832 38.6092 12.5115 38.575C12.4375 38.5386 12.3568 38.5113 12.2649 38.4908C12.1753 38.468 12.0789 38.4476 11.9803 38.4271C11.848 38.3975 11.7203 38.361 11.6015 38.3201C11.4804 38.2791 11.3751 38.2222 11.2832 38.1493C11.1913 38.0788 11.1196 37.9855 11.0658 37.8739C11.012 37.7624 10.9829 37.6235 10.9829 37.4551C10.9829 37.2707 11.0142 37.1091 11.077 36.9725C11.1398 36.8359 11.2272 36.7221 11.3348 36.6333C11.4446 36.5422 11.5701 36.4762 11.7158 36.4307C11.8615 36.3874 12.0251 36.3647 12.2067 36.3647C12.3882 36.3647 12.572 36.3829 12.7536 36.4193C12.9374 36.4557 13.0943 36.5035 13.2265 36.5605V37.1091C13.0494 37.0385 12.8813 36.9861 12.7177 36.9543C12.5563 36.9224 12.4017 36.9065 12.2605 36.9065C12.0542 36.9065 11.8974 36.9452 11.7853 37.0226C11.6732 37.0999 11.6172 37.2138 11.6172 37.3686C11.6172 37.4573 11.6373 37.5302 11.6732 37.5894C11.7091 37.6463 11.7584 37.6941 11.8211 37.7328C11.8839 37.7692 11.9556 37.8011 12.0386 37.8238C12.1192 37.8466 12.2067 37.8671 12.2963 37.8853C12.442 37.9149 12.5787 37.9536 12.7087 37.9946C12.841 38.0355 12.9575 38.0924 13.0584 38.1653C13.1593 38.2404 13.24 38.3337 13.3005 38.4521C13.361 38.5705 13.3901 38.7207 13.3901 38.9051C13.3901 39.0895 13.3565 39.2557 13.287 39.3945C13.2198 39.5311 13.1234 39.6449 12.9979 39.736C12.8746 39.8247 12.7222 39.8908 12.5451 39.9363C12.3658 39.9795 12.1708 40 11.9579 40C11.7718 40 11.5903 39.9818 11.411 39.9431C11.2317 39.9067 11.0837 39.8543 10.9649 39.786V39.2443C11.133 39.3194 11.2967 39.374 11.4558 39.4082C11.6149 39.4423 11.7808 39.4583 11.9511 39.4583C12.0498 39.4583 12.1461 39.4514 12.2425 39.4332C12.3367 39.4173 12.4218 39.3877 12.498 39.349C12.5743 39.3103 12.6348 39.2557 12.6796 39.1851C12.7267 39.1168 12.7491 39.0326 12.7491 38.9301V38.9256ZM9.22112 38.0606C9.46543 38.418 9.66492 38.7366 9.81733 39.0121H9.83302C9.81285 38.5568 9.80164 38.2267 9.80164 38.0196V36.4353H10.427V39.9317H9.7725L8.65853 38.3224C8.46352 38.0446 8.2618 37.7214 8.05335 37.3526H8.03766C8.05783 37.7806 8.0668 38.1129 8.0668 38.3474V39.9317H7.44145V36.4353H8.09593L9.21888 38.0606H9.22112ZM6.95058 38.1812C6.95058 38.4476 6.91472 38.6934 6.84075 38.9142C6.76678 39.1373 6.6592 39.3285 6.51799 39.4878C6.37678 39.6472 6.20195 39.7724 5.9935 39.8612C5.78729 39.9499 5.55195 39.9932 5.2897 39.9932C5.02746 39.9932 4.78987 39.9499 4.58366 39.8612C4.37745 39.7724 4.20262 39.6472 4.06141 39.4878C3.92021 39.3285 3.81262 39.135 3.73865 38.9142C3.66469 38.6934 3.62658 38.4476 3.62658 38.1812C3.62658 37.9149 3.66469 37.669 3.73865 37.446C3.81262 37.2229 3.92021 37.0317 4.06141 36.8723C4.20262 36.713 4.37745 36.5878 4.58366 36.4967C4.78987 36.4079 5.02522 36.3647 5.2897 36.3647C5.55419 36.3647 5.78729 36.4079 5.9935 36.4967C6.20195 36.5855 6.37454 36.7107 6.51799 36.8723C6.6592 37.0317 6.76678 37.2251 6.84075 37.446C6.91472 37.6668 6.95058 37.9126 6.95058 38.1812ZM6.30281 38.1812C6.30281 37.9672 6.27816 37.7829 6.22661 37.6212C6.1773 37.4619 6.10557 37.3276 6.01592 37.2229C5.92626 37.1159 5.81867 37.0362 5.69539 36.9839C5.57212 36.9315 5.43763 36.9042 5.2897 36.9042C5.14177 36.9042 5.00504 36.9292 4.88177 36.9839C4.75849 37.0362 4.6509 37.1159 4.56125 37.2229C4.47159 37.3276 4.39987 37.4619 4.35055 37.6212C4.299 37.7806 4.27435 37.9672 4.27435 38.1812C4.27435 38.3952 4.299 38.5796 4.35055 38.7389C4.40211 38.8983 4.47159 39.0303 4.56125 39.1373C4.6509 39.242 4.75849 39.3217 4.88177 39.3763C5.00504 39.4287 5.14177 39.456 5.2897 39.456C5.43763 39.456 5.57212 39.4287 5.69539 39.3763C5.81867 39.3217 5.92626 39.242 6.01592 39.1373C6.10781 39.0303 6.1773 38.9005 6.22661 38.7389C6.27816 38.5796 6.30281 38.3929 6.30281 38.1812ZM2.55743 36.9065C2.38933 36.9065 2.23019 36.936 2.08674 36.993C1.94329 37.0499 1.82001 37.1341 1.71691 37.2434C1.6138 37.3526 1.53311 37.4892 1.47708 37.6508C1.4188 37.8124 1.38966 37.9968 1.38966 38.204C1.38966 38.4111 1.41656 38.591 1.46811 38.748C1.51967 38.9051 1.59587 39.0349 1.69449 39.1396C1.79312 39.2443 1.91191 39.3239 2.05536 39.3763C2.19657 39.4287 2.35795 39.456 2.53726 39.456C2.66726 39.456 2.79951 39.4469 2.93175 39.4264C3.06623 39.4059 3.19399 39.3786 3.31054 39.3399V39.8885C3.19175 39.9226 3.06399 39.9499 2.92726 39.9704C2.7883 39.9909 2.64709 40 2.49916 40C2.21002 40 1.95674 39.9591 1.73708 39.8748C1.51967 39.7906 1.33587 39.67 1.18794 39.5152C1.04001 39.3604 0.930177 39.176 0.856211 38.962C0.782244 38.748 0.744141 38.509 0.744141 38.2495C0.744141 37.99 0.784486 37.7351 0.862935 37.5074C0.941384 37.2775 1.0557 37.0817 1.20587 36.9133C1.35604 36.7448 1.54208 36.6151 1.76398 36.5195C1.98812 36.4239 2.2414 36.3738 2.52381 36.3738C2.6695 36.3738 2.80399 36.3829 2.93399 36.4011C3.06175 36.4216 3.1783 36.4489 3.28141 36.4876V37.0271C3.14692 36.9861 3.01916 36.9565 2.90261 36.9406C2.78606 36.9247 2.67175 36.9156 2.55743 36.9156V36.9065Z" fill="#003B71"/>
<path d="M27.3653 0H15.822C16.8733 0.605511 17.8259 1.34305 18.6664 2.18986H18.6686C18.6686 2.18986 19.3747 2.90463 19.7557 2.67017C20.1345 2.43798 20.6993 2.09197 20.6993 2.09197C21.1319 1.82791 21.6878 1.9736 21.9433 2.41521L23.5795 5.23107C23.8351 5.67268 23.6961 6.24405 23.2635 6.50811C23.2635 6.50811 22.7009 6.85184 22.3199 7.0863C21.9411 7.31849 22.2168 8.29732 22.2168 8.29732C22.5507 9.49013 22.7345 10.7353 22.7457 12.0055C22.7457 12.0055 22.7525 13.0253 23.1806 13.1369C23.6087 13.2484 24.2452 13.4123 24.2452 13.4123C24.7316 13.5375 25.0252 14.0451 24.9042 14.5436L24.122 17.7237C23.9987 18.2222 23.5056 18.525 23.0169 18.3998C23.0169 18.3998 22.3826 18.2336 21.9523 18.1221C21.5645 18.0219 21.1364 18.7435 21.058 18.8801C20.455 20.0001 19.7131 21.0176 18.8614 21.9077C18.8614 21.9077 18.1643 22.6361 18.3907 23.0254C18.6171 23.4146 18.9533 23.9928 18.9533 23.9928C19.2088 24.4344 19.0676 25.0081 18.6372 25.2721L15.8938 26.9498C15.4634 27.2139 14.9053 27.0682 14.6498 26.6265C14.6498 26.6265 14.3136 26.0484 14.0872 25.6591C13.8608 25.2698 12.9082 25.5544 12.9082 25.5544C11.7472 25.8981 10.5346 26.0825 9.29733 26.0939C9.29733 26.0939 8.30439 26.103 8.19456 26.5446C8.08697 26.9839 7.92559 27.635 7.92559 27.635C7.80232 28.1358 7.30921 28.4363 6.82282 28.3111L3.72521 27.5075C3.23882 27.3823 2.9452 26.8747 3.06624 26.3762C3.06624 26.3762 3.22762 25.7228 3.3352 25.2835C3.44503 24.8442 2.57537 24.3525 2.57313 24.3525C1.63622 23.8198 0.773283 23.1801 0 22.454V28.0834C0 30.1754 1.65191 31.869 3.68935 31.869H27.363C29.4005 31.869 31.0524 30.1731 31.0524 28.0834V3.78558C31.0524 1.69361 29.4005 0 27.363 0" fill="url(#paint0_linear_479_147)"/>
<path d="M14.6493 4.73239C13.7057 3.99713 12.6052 3.43715 11.3836 3.12073C6.52427 1.85963 1.58646 4.88036 0.358175 9.86785C-0.128209 11.8369 0.0398956 13.8173 0.716799 15.5724C3.61941 9.15536 11.0205 5.95707 14.6471 4.73239" fill="#003B71"/>
<path d="M2.09741 18.006C3.2876 19.5221 4.95072 20.6693 6.93211 21.1838C11.7937 22.4449 16.727 19.4242 17.9576 14.4367C18.4462 12.4517 18.2736 10.4576 17.5833 8.69342C8.14023 10.4166 3.2876 16.3465 2.09741 18.006Z" fill="#003B71"/>
<path fill-rule="evenodd" clip-rule="evenodd" d="M55.676 24.2274C55.2143 26.201 54.2931 28.1723 52.9101 29.4039C51.061 31.0474 48.5596 31.8714 45.4014 31.8714C41.8578 31.8714 39.074 30.8061 37.0477 28.6777C35.017 26.5493 34.0039 23.6333 34.0039 19.9251C34.0039 16.2169 35.0058 13.3214 37.0186 11.1839C39.0314 9.05095 41.7681 7.98334 45.24 7.98334C48.4408 7.98334 50.9534 8.77779 52.7891 10.3621C54.2438 11.6187 55.1941 13.672 55.6334 15.789H48.6358C48.6223 15.3587 48.248 14.7783 47.9835 14.5279C47.3537 13.9406 46.4683 13.6446 45.3275 13.6446C43.9356 13.6446 42.8955 14.1659 42.1985 15.2062C41.5036 16.2511 41.154 17.8218 41.154 19.9228C41.154 22.0239 41.5238 23.5468 42.2657 24.603C43.0009 25.6593 44.088 26.1896 45.5202 26.1896C46.6163 26.1896 47.4904 25.8641 48.1359 25.2176C48.322 25.0287 48.4878 24.4573 48.6268 24.2229H55.676V24.2274Z" fill="#003B71"/>
<path fill-rule="evenodd" clip-rule="evenodd" d="M68.1678 14.2819H70.3262C70.4338 13.9109 70.5414 13.5762 70.6512 13.2689C71.568 11.2111 73.973 8.55005 73.973 8.55005H71.8414L71.7966 8.57281H56.4116V31.2408H63.5057V23.2713H69.3266C69.3266 23.2713 68.6497 20.4053 69.3266 17.7921H63.5057V14.2819H68.1678Z" fill="#003B71"/>
<path fill-rule="evenodd" clip-rule="evenodd" d="M92.9956 24.2274C92.5339 26.201 91.6127 28.1723 90.2297 29.4039C88.3828 31.0474 85.8792 31.8714 82.7211 31.8714C79.1796 31.8714 76.3936 30.8061 74.3674 28.6777C72.3344 26.5493 71.3213 23.6333 71.3213 19.9251C71.3213 16.2169 72.3254 13.3214 74.336 11.1839C76.3465 9.05095 79.0877 7.98334 82.5574 7.98334C85.7559 7.98334 88.2708 8.77779 90.1087 10.3621C91.5634 11.6187 92.5115 13.672 92.9508 15.789H85.9554C85.9397 15.3587 85.5676 14.7783 85.3032 14.5279C84.6733 13.9406 83.788 13.6446 82.6471 13.6446C81.2552 13.6446 80.2152 14.1659 79.5203 15.2062C78.8233 16.2511 78.4758 17.8218 78.4758 19.9228C78.4758 22.0239 78.8434 23.5468 79.5876 24.603C80.325 25.6593 81.4098 26.1896 82.8443 26.1896C83.9404 26.1896 84.8145 25.8641 85.46 25.2176C85.6461 25.0287 85.8097 24.4573 85.9509 24.2229H93.0001L92.9956 24.2274Z" fill="#003B71"/>
<defs>
<linearGradient id="paint0_linear_479_147" x1="0.00219011" y1="31.869" x2="31.6433" y2="0.489665" gradientUnits="userSpaceOnUse">
<stop stop-color="#FFD859"/>
<stop offset="1" stop-color="#FF8B04"/>
</linearGradient>
</defs>
</svg>
