<svg width="118" height="50" viewBox="0 0 118 50" fill="none" xmlns="http://www.w3.org/2000/svg">
<path d="M115.856 49.2459H117.983V49.9146H115.063V45.544H117.867V46.2127H115.856V47.3452H117.582V48.0139H115.856V49.2459ZM111.832 49.2459C112.295 49.2459 112.657 49.1805 112.915 49.0525C113.149 48.9386 113.322 48.7679 113.439 48.5488C113.555 48.3297 113.615 48.048 113.615 47.7037C113.615 47.5244 113.595 47.3651 113.555 47.22C113.516 47.0777 113.461 46.9468 113.388 46.8359C113.314 46.7249 113.225 46.6281 113.12 46.5456C113.015 46.4659 112.898 46.4005 112.765 46.3464C112.642 46.2981 112.506 46.2639 112.355 46.2412C112.204 46.2212 112.034 46.207 111.849 46.207H111.499V49.2403H111.826L111.832 49.2459ZM110.711 49.9146V45.544H111.858C111.96 45.544 112.062 45.5469 112.168 45.5526C112.273 45.5611 112.372 45.5668 112.472 45.581C112.571 45.5952 112.665 45.6095 112.759 45.6294C112.853 45.6465 112.938 45.6692 113.015 45.6948C113.245 45.7688 113.447 45.8684 113.626 45.9964C113.803 46.1216 113.951 46.2725 114.07 46.4432C114.19 46.6168 114.281 46.8074 114.343 47.018C114.403 47.2314 114.434 47.4618 114.434 47.7094C114.434 47.9456 114.409 48.1647 114.354 48.3695C114.303 48.5773 114.224 48.7651 114.118 48.9329C114.013 49.1037 113.88 49.2545 113.717 49.3825C113.555 49.5106 113.368 49.6159 113.146 49.7012C112.964 49.7695 112.753 49.8236 112.523 49.8577C112.29 49.8919 112.028 49.9089 111.738 49.9089H110.709L110.711 49.9146ZM108.226 46.594C108.072 47.0493 107.936 47.4306 107.816 47.7379L107.671 48.1362H108.8L108.652 47.7407C108.533 47.4305 108.396 47.0493 108.243 46.5968H108.229L108.226 46.594ZM109.051 48.8049H107.412L106.994 49.9175H106.15L107.867 45.5469H108.593L110.31 49.9175H109.471L109.053 48.8049H109.051ZM103.343 49.2459C103.806 49.2459 104.168 49.1805 104.426 49.0525C104.657 48.9386 104.833 48.7679 104.95 48.5488C105.066 48.3297 105.129 48.048 105.129 47.7037C105.129 47.5244 105.109 47.3651 105.069 47.22C105.032 47.0777 104.972 46.9468 104.901 46.8359C104.827 46.7249 104.739 46.6281 104.634 46.5456C104.529 46.4659 104.409 46.4005 104.278 46.3464C104.156 46.2981 104.02 46.2639 103.869 46.2412C103.718 46.2212 103.548 46.207 103.36 46.207H103.013V49.2403H103.34L103.343 49.2459ZM102.222 49.9146V45.544H103.368C103.468 45.544 103.573 45.5469 103.678 45.5526C103.784 45.5611 103.883 45.5668 103.983 45.581C104.082 45.5952 104.176 45.6095 104.27 45.6294C104.364 45.6465 104.449 45.6692 104.526 45.6948C104.756 45.7688 104.958 45.8684 105.137 45.9964C105.316 46.1216 105.462 46.2725 105.581 46.4432C105.7 46.6168 105.791 46.8074 105.854 47.018C105.914 47.2314 105.945 47.4618 105.945 47.7094C105.945 47.9456 105.919 48.1647 105.868 48.3695C105.817 48.5773 105.737 48.7651 105.632 48.9329C105.527 49.1037 105.393 49.2545 105.231 49.3825C105.069 49.5106 104.881 49.6159 104.66 49.7012C104.478 49.7695 104.267 49.8236 104.037 49.8577C103.804 49.8919 103.542 49.9089 103.252 49.9089H102.222V49.9146ZM100.607 49.9146V45.544H101.4V49.9146H100.607ZM98.0531 45.544V49.2459H100.078V49.9146H97.2596V45.544H98.0531ZM95.6443 49.9146V45.544H96.4377V49.9146H95.6443ZM93.2383 47.3452C93.4516 47.3452 93.6109 47.3224 93.7189 47.2797C93.8355 47.2285 93.9209 47.1602 93.9721 47.072C94.0233 46.9838 94.0488 46.8842 94.0488 46.7733C94.0488 46.6623 94.0204 46.5542 93.9607 46.4631C93.901 46.372 93.8043 46.3066 93.6621 46.2611C93.6052 46.244 93.5369 46.2326 93.4602 46.2241C93.3834 46.2155 93.2867 46.2127 93.1729 46.2127H92.5245V47.3452H93.2383ZM92.5245 48.0139V49.2459H93.0421C93.1814 49.2459 93.3009 49.2431 93.3976 49.2346C93.4943 49.226 93.5796 49.2146 93.6535 49.1976C93.7645 49.1748 93.8555 49.1435 93.9294 49.1008C94.0033 49.061 94.0631 49.0155 94.1086 48.9642C94.1541 48.913 94.1853 48.8561 94.2053 48.7935C94.2252 48.7309 94.2337 48.6655 94.2337 48.5943C94.2337 48.472 94.2024 48.3667 94.1342 48.2728C94.0687 48.1817 93.9635 48.1135 93.8213 48.0679C93.7588 48.048 93.6848 48.0338 93.5995 48.0252C93.5142 48.0167 93.4061 48.011 93.2753 48.011H92.5245V48.0139ZM94.8622 46.7078C94.8622 46.8985 94.8195 47.0692 94.7371 47.2285C94.6517 47.385 94.5124 47.5159 94.319 47.624V47.6383C94.4271 47.6753 94.5238 47.7208 94.6148 47.7805C94.7029 47.8403 94.7826 47.9086 94.8451 47.9854C94.9106 48.0679 94.9617 48.1561 94.9987 48.2557C95.0357 48.3553 95.0527 48.4691 95.0527 48.5915C95.0527 48.6996 95.0357 48.8134 95.0016 48.9358C94.9674 49.0581 94.9106 49.1748 94.8252 49.2886C94.7399 49.4024 94.629 49.5077 94.4868 49.6045C94.3475 49.7012 94.1711 49.778 93.955 49.835C93.901 49.8492 93.8412 49.8606 93.7787 49.8719C93.7161 49.8833 93.645 49.8919 93.5654 49.9004C93.4886 49.9089 93.4033 49.9146 93.3066 49.9175C93.2099 49.9203 93.1047 49.9232 92.9852 49.9232H91.7253V45.5526H93.2298C93.5512 45.5526 93.8071 45.5839 94.0062 45.6521C94.1541 45.7005 94.2792 45.7631 94.3873 45.8399C94.4953 45.9196 94.5835 46.005 94.6546 46.0989C94.7257 46.1928 94.774 46.2952 94.811 46.3977C94.8451 46.5029 94.8594 46.6111 94.8594 46.7163L94.8622 46.7078ZM89.2454 46.594C89.089 47.0493 88.9525 47.4306 88.8359 47.7379L88.688 48.1362H89.8171L89.672 47.7407C89.5526 47.4305 89.4161 47.0493 89.2597 46.5968H89.2483L89.2454 46.594ZM90.0702 48.8049H88.4321L88.014 49.9175H87.1694L88.8871 45.5469H89.6095L91.3272 49.9175H90.4883L90.0702 48.8049ZM86.1569 49.9146H85.3635V46.2127H83.9671V45.544H87.5505V46.2127H86.1569V49.9146ZM82.0304 47.5757C82.3404 48.0224 82.5935 48.4208 82.7869 48.7651H82.8068C82.7812 48.196 82.7698 47.7834 82.7698 47.5245V45.544H83.5633V49.9146H82.7328L81.3223 47.9029C81.0748 47.5558 80.816 47.1517 80.5516 46.6907H80.5317C80.5573 47.2257 80.5715 47.6411 80.5715 47.9342V49.9146H79.778V45.544H80.6084L82.0332 47.5757H82.0304ZM79.1495 47.7265C79.1495 48.0594 79.104 48.3667 79.0102 48.6427C78.9163 48.9216 78.7769 49.1606 78.5978 49.3598C78.4186 49.5589 78.1968 49.7154 77.9352 49.8264C77.6735 49.9374 77.3749 49.9915 77.0422 49.9915C76.7094 49.9915 76.4108 49.9374 76.1463 49.8264C75.8847 49.7154 75.6628 49.5589 75.4837 49.3598C75.3045 49.1606 75.1652 48.9187 75.0742 48.6427C74.9803 48.3667 74.932 48.0594 74.932 47.7265C74.932 47.3936 74.9803 47.0863 75.0742 46.8074C75.168 46.5285 75.3045 46.2895 75.4837 46.0903C75.6628 45.8912 75.8847 45.7347 76.1463 45.6208C76.408 45.5099 76.7066 45.4558 77.0422 45.4558C77.3777 45.4558 77.6735 45.5099 77.9352 45.6208C78.1968 45.7318 78.4186 45.8883 78.5978 46.0903C78.7769 46.2895 78.9163 46.5314 79.0102 46.8074C79.104 47.0834 79.1495 47.3907 79.1495 47.7265ZM78.3276 47.7265C78.3276 47.459 78.2963 47.2285 78.2309 47.0265C78.1684 46.8273 78.0773 46.6594 77.9636 46.5285C77.8498 46.3948 77.7133 46.2952 77.5569 46.2298C77.4005 46.1643 77.2299 46.1302 77.0422 46.1302C76.8545 46.1302 76.681 46.1615 76.5246 46.2298C76.3681 46.2952 76.2316 46.3948 76.1179 46.5285C76.0041 46.6594 75.9131 46.8273 75.8506 47.0265C75.7851 47.2257 75.7539 47.459 75.7539 47.7265C75.7539 47.9939 75.7851 48.2244 75.8506 48.4236C75.9131 48.6228 76.0041 48.7878 76.1179 48.9216C76.2316 49.0525 76.3681 49.152 76.5246 49.2203C76.681 49.2858 76.8516 49.3199 77.0422 49.3199C77.2327 49.3199 77.4005 49.2858 77.5569 49.2203C77.7133 49.152 77.8498 49.0525 77.9636 48.9216C78.0773 48.7878 78.1684 48.6256 78.2309 48.4236C78.2963 48.2244 78.3276 47.9911 78.3276 47.7265ZM73.5754 46.133C73.3593 46.133 73.1602 46.17 72.9782 46.2412C72.7962 46.3123 72.6398 46.4176 72.5118 46.5542C72.381 46.6907 72.2786 46.8615 72.2046 47.0635C72.1307 47.2655 72.0937 47.496 72.0937 47.7549C72.0937 48.0139 72.1278 48.2387 72.1933 48.435C72.2587 48.6313 72.3554 48.7935 72.4805 48.9244C72.6056 49.0553 72.7592 49.1549 72.9384 49.2203C73.1175 49.2858 73.3223 49.3199 73.5498 49.3199C73.7148 49.3199 73.8797 49.3085 74.0503 49.2829C74.221 49.2573 74.3802 49.2232 74.5281 49.1748V49.8606C74.3774 49.9032 74.2153 49.9374 74.0418 49.963C73.8683 49.9886 73.6863 50 73.4986 50C73.1318 50 72.8104 49.9488 72.5317 49.8435C72.2558 49.7382 72.0226 49.5874 71.8349 49.3939C71.6472 49.2004 71.505 48.9699 71.414 48.7025C71.3202 48.435 71.2718 48.1362 71.2718 47.8118C71.2718 47.4875 71.323 47.1688 71.4226 46.8842C71.5221 46.5968 71.6671 46.3521 71.8577 46.1416C72.0454 45.931 72.2843 45.7688 72.5658 45.6493C72.8502 45.5298 73.1716 45.4672 73.5299 45.4672C73.7119 45.4672 73.8854 45.4786 74.0503 45.5013C74.2153 45.5269 74.3603 45.5611 74.494 45.6095V46.2838C74.3205 46.2326 74.1613 46.1956 74.0134 46.1757C73.8655 46.1558 73.7176 46.1444 73.5782 46.1444L73.5754 46.133ZM67.606 49.2459H69.7333V49.9146H66.8125V45.544H69.6167V46.2127H67.606V47.3452H69.3323V48.0139H67.606V49.2459ZM63.5847 49.2459C64.0454 49.2459 64.4094 49.1805 64.6682 49.0525C64.8986 48.9386 65.0721 48.7679 65.1915 48.5488C65.311 48.3297 65.3707 48.048 65.3707 47.7037C65.3707 47.5244 65.3508 47.3651 65.311 47.22C65.274 47.0777 65.2171 46.9468 65.1432 46.8359C65.0721 46.7249 64.9811 46.6281 64.8787 46.5456C64.7734 46.4659 64.654 46.4005 64.5232 46.3464C64.4009 46.2981 64.2644 46.2639 64.1137 46.2412C63.9629 46.2212 63.7951 46.207 63.6046 46.207H63.2548V49.2403H63.5818L63.5847 49.2459ZM62.4613 49.9146V45.544H63.6074C63.707 45.544 63.8122 45.5469 63.9174 45.5526C64.0227 45.5611 64.125 45.5668 64.2217 45.581C64.3213 45.5952 64.4151 45.6095 64.509 45.6294C64.6028 45.6465 64.6881 45.6692 64.7649 45.6948C64.9953 45.7688 65.2 45.8684 65.3764 45.9964C65.5527 46.1216 65.7006 46.2725 65.82 46.4432C65.9423 46.6168 66.0305 46.8074 66.093 47.018C66.1528 47.2314 66.184 47.4618 66.184 47.7094C66.184 47.9456 66.1584 48.1647 66.1073 48.3695C66.0561 48.5773 65.9764 48.7651 65.8712 48.9329C65.766 49.1037 65.6323 49.2545 65.4731 49.3825C65.311 49.5106 65.1233 49.6159 64.9014 49.7012C64.7166 49.7695 64.509 49.8236 64.2786 49.8577C64.0454 49.8919 63.7838 49.9089 63.4937 49.9089H62.4642L62.4613 49.9146ZM58.5452 45.544V49.2459H60.5701V49.9146H57.7518V45.544H58.5452ZM55.2662 46.594C55.1098 47.0493 54.9733 47.4306 54.8538 47.7379L54.7059 48.1362H55.8321L55.6871 47.7407C55.5677 47.4305 55.4311 47.0493 55.2776 46.5968H55.2662V46.594ZM56.0909 48.8049H54.4528L54.0319 49.9175H53.1873L54.905 45.5469H55.6274L57.3451 49.9175H56.509L56.0881 48.8049H56.0909ZM50.8496 47.5529C51.0287 47.5529 51.1823 47.5444 51.3103 47.5273C51.4354 47.5102 51.5407 47.4846 51.626 47.4533C51.7852 47.3936 51.8961 47.311 51.9587 47.2029C52.0184 47.0976 52.0497 46.9753 52.0497 46.8387C52.0497 46.722 52.027 46.6168 51.9786 46.5257C51.9303 46.4346 51.8478 46.3635 51.7312 46.3123C51.6573 46.2753 51.5634 46.2525 51.4496 46.2355C51.3359 46.2184 51.1937 46.2099 51.0259 46.2099H50.4628V47.5501H50.8524L50.8496 47.5529ZM52.8631 46.8558C52.8631 47.1602 52.7778 47.4192 52.6128 47.6326C52.445 47.846 52.1891 48.0025 51.8393 48.1049V48.1191L53.1361 49.9175H52.1834L51.006 48.2244H50.4628V49.9175H49.6665V45.5469H50.9804C51.1994 45.5469 51.4013 45.5582 51.589 45.5839C51.7767 45.6095 51.9388 45.6465 52.0696 45.6977C52.3227 45.7944 52.519 45.9424 52.6583 46.133C52.7948 46.3265 52.8659 46.5684 52.8659 46.8615L52.8631 46.8558ZM46.9107 49.2459H49.0408V49.9146H46.1173V45.544H48.9214V46.2127H46.9107V47.3452H48.637V48.0139H46.9107V49.2459ZM42.8894 49.2459C43.3501 49.2459 43.7142 49.1805 43.973 49.0525C44.2033 48.9386 44.3768 48.7679 44.4962 48.5488C44.6128 48.3297 44.6726 48.048 44.6726 47.7037C44.6726 47.5244 44.6527 47.3651 44.6128 47.22C44.5759 47.0777 44.519 46.9468 44.4451 46.8359C44.3711 46.7249 44.283 46.6281 44.1806 46.5456C44.0753 46.4659 43.9559 46.4005 43.8251 46.3464C43.7028 46.2981 43.5663 46.2639 43.4156 46.2412C43.2648 46.2212 43.097 46.207 42.9093 46.207H42.5624V49.2403H42.8894V49.2459ZM41.7661 49.9146V45.544H42.9093C43.0117 45.544 43.1141 45.5469 43.2193 45.5526C43.3246 45.5611 43.4269 45.5668 43.5236 45.581C43.6232 45.5952 43.717 45.6095 43.8109 45.6294C43.9047 45.6465 43.99 45.6692 44.0668 45.6948C44.2972 45.7688 44.5019 45.8684 44.6783 45.9964C44.8546 46.1216 45.0025 46.2725 45.1219 46.4432C45.2442 46.6168 45.3324 46.8074 45.3949 47.018C45.4547 47.2314 45.4859 47.4618 45.4859 47.7094C45.4859 47.9456 45.4603 48.1647 45.4091 48.3695C45.358 48.5773 45.2783 48.7651 45.1731 48.9329C45.0679 49.1037 44.9342 49.2545 44.7749 49.3825C44.6128 49.5106 44.4251 49.6159 44.2033 49.7012C44.0185 49.7695 43.8109 49.8236 43.5805 49.8577C43.3473 49.8919 43.0857 49.9089 42.7956 49.9089H41.7661V49.9146ZM39.0132 49.2459H41.1404V49.9146H38.2197V45.544H41.0238V46.2127H39.0132V47.3452H40.7394V48.0139H39.0132V49.2459ZM35.7768 49.9146H34.9833V45.544H37.7391V46.2127H35.7768V47.3452H37.4547V48.0139H35.7768V49.9146ZM32.9926 47.7265C32.9926 48.0594 32.9471 48.3667 32.8532 48.6427C32.7594 48.9216 32.6228 49.1606 32.4408 49.3598C32.2617 49.5589 32.0398 49.7154 31.7782 49.8264C31.5166 49.9374 31.2179 49.9915 30.8852 49.9915C30.5525 49.9915 30.2539 49.9374 29.9922 49.8264C29.7277 49.7154 29.5087 49.5589 29.3296 49.3598C29.1476 49.1606 29.0111 48.9187 28.9201 48.6427C28.8262 48.3667 28.7779 48.0594 28.7779 47.7265C28.7779 47.3936 28.8262 47.0863 28.9201 46.8074C29.0139 46.5285 29.1504 46.2895 29.3296 46.0903C29.5087 45.8912 29.7277 45.7347 29.9922 45.6208C30.2539 45.5099 30.5525 45.4558 30.8852 45.4558C31.2179 45.4558 31.5166 45.5099 31.7782 45.6208C32.0427 45.7318 32.2617 45.8883 32.4408 46.0903C32.62 46.2895 32.7594 46.5314 32.8532 46.8074C32.9471 47.0834 32.9926 47.3907 32.9926 47.7265ZM32.1707 47.7265C32.1707 47.459 32.1394 47.2285 32.074 47.0265C32.0086 46.8273 31.9204 46.6594 31.8066 46.5285C31.6929 46.3948 31.5564 46.2952 31.4 46.2298C31.2435 46.1643 31.0701 46.1302 30.8824 46.1302C30.6947 46.1302 30.524 46.1615 30.3648 46.2298C30.2084 46.2952 30.0747 46.3948 29.9581 46.5285C29.8415 46.6594 29.7533 46.8273 29.6908 47.0265C29.6253 47.2257 29.5941 47.459 29.5941 47.7265C29.5941 47.9939 29.6253 48.2244 29.6908 48.4236C29.7562 48.6228 29.8443 48.7878 29.9581 48.9216C30.0718 49.0525 30.2084 49.152 30.3648 49.2203C30.5212 49.2858 30.6947 49.3199 30.8824 49.3199C31.0701 49.3199 31.2407 49.2858 31.4 49.2203C31.5564 49.152 31.6929 49.0525 31.8066 48.9216C31.9204 48.7878 32.0114 48.6256 32.074 48.4236C32.1394 48.2244 32.1707 47.9911 32.1707 47.7265ZM25.3481 47.3452H27.3474V45.544H28.1408V49.9146H27.3474V48.0139H25.3481V49.9146H24.5546V45.544H25.3481V47.3452ZM22.0008 45.544V49.2459H24.0257V49.9146H21.2073V45.544H22.0008ZM18.4544 49.2459H20.5817V49.9146H17.6609V45.544H20.4651V46.2127H18.4544V47.3452H20.1807V48.0139H18.4544V49.2459ZM16.1764 48.6569C16.1764 48.546 16.148 48.4578 16.0939 48.3866C16.0399 48.3183 15.966 48.2614 15.875 48.2187C15.7811 48.1732 15.6787 48.1391 15.5621 48.1135C15.4484 48.085 15.3261 48.0594 15.2009 48.0338C15.0332 47.9968 14.871 47.9513 14.7203 47.9C14.5667 47.8488 14.4331 47.7777 14.3165 47.6866C14.1999 47.5984 14.1089 47.4818 14.0406 47.3423C13.9724 47.2029 13.9354 47.0293 13.9354 46.8188C13.9354 46.5883 13.9752 46.3863 14.0548 46.2155C14.1345 46.0448 14.2454 45.9025 14.3819 45.7916C14.5212 45.6778 14.6805 45.5952 14.8654 45.5383C15.0502 45.4843 15.2578 45.4558 15.4882 45.4558C15.7185 45.4558 15.9517 45.4786 16.1821 45.5241C16.4153 45.5696 16.6144 45.6294 16.7822 45.7005V46.3863C16.5575 46.2981 16.3442 46.2326 16.1366 46.1928C15.9318 46.1529 15.7356 46.133 15.5564 46.133C15.2948 46.133 15.0957 46.1814 14.9535 46.2781C14.8113 46.3749 14.7402 46.5172 14.7402 46.7107C14.7402 46.8216 14.7658 46.9127 14.8113 46.9867C14.8568 47.0578 14.9194 47.1175 14.999 47.1659C15.0787 47.2114 15.1697 47.2513 15.2749 47.2797C15.3773 47.3082 15.4882 47.3338 15.6019 47.3566C15.7868 47.3936 15.9603 47.4419 16.1252 47.4932C16.293 47.5444 16.4409 47.6155 16.5689 47.7066C16.6969 47.8005 16.7992 47.9171 16.876 48.0651C16.9528 48.213 16.9898 48.4008 16.9898 48.6313C16.9898 48.8618 16.9471 49.0695 16.859 49.2431C16.7736 49.4138 16.6513 49.5561 16.4921 49.6699C16.3357 49.7809 16.1423 49.8634 15.9176 49.9203C15.6901 49.9744 15.4427 50 15.1725 50C14.9365 50 14.7061 49.9772 14.4786 49.9289C14.2511 49.8833 14.0634 49.8179 13.9126 49.7325V49.0553C14.1259 49.1492 14.3335 49.2175 14.5355 49.2602C14.7374 49.3029 14.9478 49.3228 15.164 49.3228C15.2891 49.3228 15.4114 49.3142 15.5337 49.2915C15.6531 49.2716 15.7612 49.2346 15.8579 49.1862C15.9546 49.1378 16.0314 49.0695 16.0883 48.9813C16.148 48.896 16.1764 48.7907 16.1764 48.6626V48.6569ZM11.7001 47.5757C12.0101 48.0224 12.2632 48.4208 12.4566 48.7651H12.4765C12.4509 48.196 12.4366 47.7834 12.4366 47.5245V45.544H13.2301V49.9146H12.3997L10.9862 47.9029C10.7388 47.5558 10.4829 47.1517 10.2184 46.6907H10.1985C10.2241 47.2257 10.2354 47.6411 10.2354 47.9342V49.9146H9.44199V45.544H10.2724L11.6972 47.5757H11.7001ZM8.81917 47.7265C8.81917 48.0594 8.77367 48.3667 8.67982 48.6427C8.58597 48.9216 8.44946 49.1606 8.27029 49.3598C8.09113 49.5589 7.8693 49.7154 7.60481 49.8264C7.34317 49.9374 7.04456 49.9915 6.71182 49.9915C6.37908 49.9915 6.07763 49.9374 5.81598 49.8264C5.55434 49.7154 5.33252 49.5589 5.15335 49.3598C4.97418 49.1606 4.83767 48.9187 4.74382 48.6427C4.64997 48.3667 4.60163 48.0594 4.60163 47.7265C4.60163 47.3936 4.64997 47.0863 4.74382 46.8074C4.83767 46.5285 4.97418 46.2895 5.15335 46.0903C5.33252 45.8912 5.55434 45.7347 5.81598 45.6208C6.07763 45.5099 6.37624 45.4558 6.71182 45.4558C7.04741 45.4558 7.34317 45.5099 7.60481 45.6208C7.8693 45.7318 8.08828 45.8883 8.27029 46.0903C8.44946 46.2895 8.58597 46.5314 8.67982 46.8074C8.77367 47.0834 8.81917 47.3907 8.81917 47.7265ZM7.99728 47.7265C7.99728 47.459 7.96599 47.2285 7.90058 47.0265C7.83802 46.8273 7.74701 46.6594 7.63325 46.5285C7.5195 46.3948 7.38299 46.2952 7.22657 46.2298C7.07016 46.1643 6.89952 46.1302 6.71182 46.1302C6.52412 46.1302 6.35064 46.1615 6.19423 46.2298C6.03781 46.2952 5.9013 46.3948 5.78755 46.5285C5.67379 46.6594 5.58278 46.8273 5.52022 47.0265C5.45481 47.2257 5.42352 47.459 5.42352 47.7265C5.42352 47.9939 5.45481 48.2244 5.52022 48.4236C5.58563 48.6228 5.67379 48.7878 5.78755 48.9216C5.9013 49.0525 6.03781 49.152 6.19423 49.2203C6.35064 49.2858 6.52412 49.3199 6.71182 49.3199C6.89952 49.3199 7.07016 49.2858 7.22657 49.2203C7.38299 49.152 7.5195 49.0525 7.63325 48.9216C7.74986 48.7878 7.83802 48.6256 7.90058 48.4236C7.96599 48.2244 7.99728 47.9911 7.99728 47.7265ZM3.24507 46.133C3.03178 46.133 2.82986 46.17 2.64785 46.2412C2.46584 46.3123 2.30942 46.4176 2.1786 46.5542C2.04778 46.6907 1.9454 46.8615 1.8743 47.0635C1.80036 47.2655 1.76339 47.496 1.76339 47.7549C1.76339 48.0139 1.79751 48.2387 1.86292 48.435C1.92833 48.6313 2.02503 48.7935 2.15016 48.9244C2.27529 49.0553 2.42602 49.1549 2.60803 49.2203C2.7872 49.2858 2.99196 49.3199 3.21948 49.3199C3.38443 49.3199 3.55222 49.3085 3.72001 49.2829C3.89065 49.2573 4.05275 49.2232 4.20063 49.1748V49.8606C4.04991 49.9032 3.8878 49.9374 3.71432 49.963C3.538 49.9886 3.35883 50 3.17113 50C2.80426 50 2.4829 49.9488 2.2042 49.8435C1.92833 49.7382 1.69513 49.5874 1.50743 49.3939C1.31973 49.2004 1.18038 48.9699 1.08653 48.7025C0.992683 48.435 0.944336 48.1362 0.944336 47.8118C0.944336 47.4875 0.995527 47.1688 1.09506 46.8842C1.1946 46.5968 1.33964 46.3521 1.53019 46.1416C1.72073 45.931 1.95677 45.7688 2.23832 45.6493C2.52272 45.5298 2.84408 45.4672 3.20241 45.4672C3.38727 45.4672 3.55791 45.4786 3.72285 45.5013C3.88496 45.5269 4.03284 45.5611 4.16366 45.6095V46.2838C3.99303 46.2326 3.83092 46.1956 3.68304 46.1757C3.53515 46.1558 3.39011 46.1444 3.24507 46.1444V46.133Z" fill="white"/>
<path d="M34.7215 0H20.0753C21.4091 0.756889 22.6178 1.67881 23.6842 2.73732H23.6871C23.6871 2.73732 24.5829 3.63079 25.0664 3.33771C25.547 3.04747 26.2637 2.61497 26.2637 2.61497C26.8126 2.28489 27.5178 2.467 27.8421 3.01902L29.9181 6.53884C30.2423 7.09085 30.066 7.80506 29.5171 8.13513C29.5171 8.13513 28.8033 8.56479 28.3198 8.85787C27.8392 9.14811 28.189 10.3717 28.189 10.3717C28.6128 11.8627 28.846 13.4191 28.8602 15.0069C28.8602 15.0069 28.8687 16.2816 29.4119 16.4211C29.9551 16.5605 30.7628 16.7654 30.7628 16.7654C31.3799 16.9219 31.7525 17.5564 31.5989 18.1796L30.6064 22.1546C30.4499 22.7778 29.8243 23.1562 29.2043 22.9997C29.2043 22.9997 28.3995 22.792 27.8534 22.6526C27.3614 22.5274 26.8182 23.4294 26.7187 23.6001C25.9537 25.0001 25.0123 26.272 23.9317 27.3846C23.9317 27.3846 23.0472 28.2951 23.3344 28.7817C23.6217 29.2683 24.0483 29.991 24.0483 29.991C24.3725 30.543 24.1933 31.2601 23.6473 31.5901L20.1663 33.6872C19.6203 34.0173 18.9121 33.8352 18.5879 33.2832C18.5879 33.2832 18.1613 32.5604 17.8741 32.0739C17.5868 31.5873 16.3782 31.943 16.3782 31.943C14.905 32.3726 13.3665 32.6031 11.7966 32.6174C11.7966 32.6174 10.5368 32.6287 10.3974 33.1808C10.2609 33.7299 10.0561 34.5437 10.0561 34.5437C9.89971 35.1697 9.27405 35.5453 8.65692 35.3888L4.72661 34.3844C4.10948 34.2279 3.73692 33.5933 3.89049 32.9702C3.89049 32.9702 4.09526 32.1535 4.23176 31.6044C4.37112 31.0552 3.26767 30.4406 3.26483 30.4406C2.07607 29.7748 0.981155 28.9752 0 28.0675V35.1043C0 37.7192 2.09598 39.8363 4.68111 39.8363H34.7187C37.3038 39.8363 39.3998 37.7164 39.3998 35.1043V4.73198C39.3998 2.11701 37.3038 0 34.7187 0" fill="white"/>
<path d="M18.5876 5.91548C17.3903 4.9964 15.9939 4.29642 14.444 3.9009C8.27832 2.32452 2.01315 6.10043 0.454679 12.3348C-0.162454 14.7961 0.0508407 17.2717 0.909707 19.4655C4.59259 11.4442 13.9832 7.44633 18.5847 5.91548" fill="white"/>
<path d="M2.66113 22.5075C4.17126 24.4026 6.28145 25.8367 8.79549 26.4797C14.964 28.0561 21.2235 24.2802 22.7848 18.0458C23.4047 15.5646 23.1858 13.072 22.3098 10.8668C10.3284 13.0208 4.17126 20.4332 2.66113 22.5075Z" fill="white"/>
<path fill-rule="evenodd" clip-rule="evenodd" d="M70.643 30.2843C70.0571 32.7513 68.8883 35.2155 67.1336 36.7548C64.7873 38.8092 61.6135 39.8393 57.6064 39.8393C53.1101 39.8393 49.578 38.5076 47.0071 35.8471C44.4305 33.1866 43.145 29.5416 43.145 24.9064C43.145 20.2712 44.4163 16.6518 46.9701 13.9799C49.5239 11.3137 52.9964 9.97919 57.4016 9.97919C61.4628 9.97919 64.6508 10.9722 66.98 12.9527C68.8257 14.5234 70.0315 17.09 70.5889 19.7362H61.7102C61.6931 19.1984 61.2182 18.4728 60.8826 18.1598C60.0835 17.4257 58.9601 17.0558 57.5125 17.0558C55.7465 17.0558 54.4269 17.7074 53.5424 19.0078C52.6608 20.3138 52.2172 22.2772 52.2172 24.9036C52.2172 27.5299 52.6864 29.4335 53.6277 30.7538C54.5605 32.0741 55.9399 32.7371 57.7571 32.7371C59.1478 32.7371 60.2569 32.3302 61.076 31.5221C61.312 31.2859 61.5225 30.5717 61.6988 30.2786H70.643V30.2843Z" fill="white"/>
<path fill-rule="evenodd" clip-rule="evenodd" d="M86.4926 17.8524H89.2313C89.3678 17.3886 89.5043 16.9703 89.6437 16.5862C90.8068 14.0139 93.8583 10.6876 93.8583 10.6876H91.1538L91.0969 10.716H71.5762V39.051H80.5772V29.0891H87.9629C87.9629 29.0891 87.104 25.5066 87.9629 22.2401H80.5772V17.8524H86.4926Z" fill="white"/>
<path fill-rule="evenodd" clip-rule="evenodd" d="M117.994 30.2843C117.409 32.7513 116.24 35.2155 114.485 36.7548C112.142 38.8092 108.965 39.8393 104.958 39.8393C100.464 39.8393 96.9295 38.5076 94.3586 35.8471C91.7791 33.1866 90.4937 29.5416 90.4937 24.9064C90.4937 20.2712 91.7677 16.6518 94.3187 13.9799C96.8697 11.3137 100.348 9.97919 104.75 9.97919C108.809 9.97919 111.999 10.9722 114.331 12.9527C116.177 14.5234 117.38 17.09 117.938 19.7362H109.062C109.042 19.1984 108.57 18.4728 108.234 18.1598C107.435 17.4257 106.312 17.0558 104.864 17.0558C103.098 17.0558 101.778 17.7074 100.897 19.0078C100.012 20.3138 99.5715 22.2772 99.5715 24.9036C99.5715 27.5299 100.038 29.4335 100.982 30.7538C101.918 32.0741 103.294 32.7371 105.114 32.7371C106.505 32.7371 107.614 32.3302 108.433 31.5221C108.669 31.2859 108.877 30.5717 109.056 30.2786H118L117.994 30.2843Z" fill="white"/>
</svg>
